<svg id="svg" version="1.1" xmlns="http://www.w3.org/2000/svg" xmlns:xlink="http://www.w3.org/1999/xlink" width="400" height="189.92592592592595" viewBox="0, 0, 400,189.92592592592595"><g id="svgg"><path id="path0" d="M0.000 94.967 L 0.000 189.934 200.000 189.934 L 400.000 189.934 400.000 94.967 L 400.000 0.000 200.000 0.000 L 0.000 0.000 0.000 94.967 M179.541 80.570 C 180.487 81.244,180.744 82.749,180.062 83.616 C 178.597 85.479,175.689 84.651,175.689 82.371 C 175.689 80.387,177.860 79.373,179.541 80.570 M184.841 80.159 C 187.119 80.791,187.010 84.171,184.697 84.605 C 181.879 85.134,180.568 81.367,183.175 80.232 C 183.893 79.919,183.967 79.916,184.841 80.159 M162.736 82.669 L 162.794 83.571 161.872 83.571 C 160.406 83.571,160.494 82.902,160.494 94.042 C 160.494 106.007,160.119 104.737,163.617 104.611 C 167.132 104.484,168.429 103.710,169.307 101.214 C 169.884 99.573,170.052 99.465,171.068 100.084 C 171.623 100.423,171.658 100.502,171.506 101.081 C 171.191 102.283,170.787 103.996,170.539 105.182 C 170.223 106.690,170.943 106.574,162.298 106.511 L 155.081 106.458 155.023 105.556 L 154.965 104.653 155.807 104.653 C 157.118 104.653,157.056 105.164,157.084 94.065 C 157.113 82.906,157.179 83.571,156.040 83.571 C 155.242 83.571,155.215 83.551,155.140 82.909 C 154.993 81.654,154.982 81.658,159.034 81.715 L 162.678 81.766 162.736 82.669 M200.190 87.069 C 200.190 90.293,199.933 90.028,203.059 90.028 L 205.698 90.028 205.698 90.863 C 205.698 91.922,205.681 91.928,202.626 91.928 L 200.156 91.928 200.232 97.483 C 200.313 103.426,200.333 103.572,201.153 103.996 C 202.853 104.875,204.554 103.845,205.028 101.649 C 205.289 100.438,206.841 100.714,206.833 101.970 C 206.810 105.862,201.570 108.105,198.654 105.470 C 197.279 104.229,197.151 103.533,197.151 97.334 L 197.151 91.928 195.177 91.928 C 193.003 91.928,192.972 91.911,192.972 90.678 L 192.972 90.028 194.001 90.028 C 196.486 90.028,198.088 88.278,198.098 85.549 C 198.101 84.776,198.193 84.710,199.272 84.710 L 200.190 84.710 200.190 87.069 M184.960 90.167 C 190.612 92.801,190.773 102.639,185.212 105.665 C 177.121 110.069,169.863 98.926,176.232 91.877 C 178.278 89.612,182.144 88.855,184.960 90.167 M224.754 90.622 C 224.736 90.896,224.248 91.793,223.669 92.616 C 222.115 94.824,220.696 96.861,218.856 99.525 C 217.954 100.831,216.811 102.454,216.317 103.131 C 215.182 104.685,215.151 104.655,217.912 104.645 C 221.722 104.631,222.647 103.996,223.437 100.855 C 223.651 100.002,223.653 100.000,224.474 100.018 C 225.322 100.036,225.704 100.334,225.546 100.855 C 225.498 101.011,225.376 101.695,225.273 102.374 C 224.854 105.150,224.617 106.275,224.422 106.407 C 224.176 106.574,212.318 106.603,211.886 106.437 C 211.107 106.138,211.513 105.042,213.355 102.469 C 214.327 101.111,215.754 99.103,216.525 98.006 C 217.296 96.909,218.552 95.135,219.315 94.064 C 220.078 92.992,220.703 92.074,220.703 92.022 C 220.703 91.970,219.540 91.928,218.120 91.928 L 215.537 91.928 214.996 92.507 C 214.482 93.057,213.675 94.854,213.675 95.449 C 213.675 95.655,213.432 95.726,212.726 95.726 L 211.776 95.726 211.776 94.987 C 211.776 94.001,212.151 90.379,212.274 90.180 C 212.328 90.094,215.165 90.046,218.579 90.073 L 224.786 90.123 224.754 90.622 M180.110 91.842 C 175.344 94.217,176.538 104.653,181.575 104.653 C 184.260 104.653,185.705 102.665,185.896 98.706 C 186.151 93.402,183.438 90.184,180.110 91.842 M234.131 102.177 C 236.000 103.316,235.542 106.174,233.397 106.751 C 230.510 107.529,228.683 103.888,231.132 102.237 C 231.953 101.684,233.280 101.657,234.131 102.177 " stroke="none" fill="#fbfbfb" fill-rule="evenodd"></path><path id="path1" d="M176.594 80.896 C 176.050 81.382,175.976 81.562,175.992 82.353 C 176.040 84.612,179.115 85.151,179.991 83.055 C 180.820 81.071,178.235 79.429,176.594 80.896 M182.711 80.887 C 181.175 82.424,182.283 84.464,184.593 84.352 C 185.288 84.319,186.325 83.111,186.325 82.336 C 186.325 80.620,183.936 79.663,182.711 80.887 M155.366 82.712 C 155.366 83.364,155.385 83.381,156.112 83.381 C 157.529 83.381,157.455 82.786,157.455 94.089 C 157.455 105.356,157.525 104.790,156.125 104.882 C 155.313 104.935,155.268 104.969,155.211 105.558 L 155.151 106.177 162.618 106.128 L 170.084 106.078 170.418 104.558 C 170.601 103.723,170.875 102.483,171.027 101.804 C 171.481 99.770,170.340 99.275,169.638 101.202 C 168.976 103.016,167.815 104.242,166.364 104.659 C 165.345 104.951,160.775 104.897,160.520 104.590 C 160.296 104.321,160.184 83.817,160.405 83.597 C 160.466 83.535,160.961 83.440,161.503 83.385 C 162.449 83.290,162.488 83.263,162.488 82.716 L 162.488 82.146 158.927 82.095 L 155.366 82.043 155.366 82.712 M198.729 84.860 C 198.605 84.939,198.417 85.534,198.313 86.181 C 197.846 89.084,196.681 90.218,194.167 90.218 L 193.138 90.218 193.198 90.836 L 193.257 91.453 195.299 91.507 L 197.341 91.561 197.341 96.691 C 197.341 102.861,197.505 103.848,198.748 105.134 C 201.248 107.721,205.970 105.966,206.568 102.227 C 206.681 101.519,206.657 101.468,206.146 101.340 C 205.847 101.265,205.570 101.189,205.529 101.172 C 205.488 101.154,205.354 101.537,205.231 102.023 C 204.677 104.204,203.077 105.151,201.241 104.383 C 200.045 103.884,200.000 103.623,200.000 97.261 L 200.000 91.558 202.707 91.506 L 205.413 91.453 205.472 90.841 L 205.531 90.229 202.813 90.176 L 200.095 90.123 200.042 87.567 C 200.005 85.814,199.916 84.964,199.757 84.863 C 199.463 84.676,199.020 84.675,198.729 84.860 M179.357 90.176 C 174.563 91.794,172.553 98.370,175.474 102.881 C 179.759 109.500,189.035 106.109,189.007 97.933 C 188.988 92.165,184.396 88.474,179.357 90.176 M212.377 91.690 C 211.906 95.073,211.910 95.325,212.439 95.458 C 213.165 95.640,213.367 95.475,213.653 94.468 C 214.010 93.215,214.562 92.341,215.270 91.909 C 216.013 91.456,221.083 91.355,221.083 91.794 C 221.083 92.022,219.091 94.908,214.303 101.614 C 210.739 106.607,210.383 106.191,218.168 106.128 L 224.380 106.078 224.811 103.514 C 225.349 100.309,225.350 100.499,224.788 100.286 C 224.148 100.042,223.742 100.232,223.742 100.775 C 223.742 102.014,222.403 104.124,221.326 104.583 C 220.590 104.897,215.005 104.960,215.005 104.655 C 215.005 104.551,215.582 103.656,216.287 102.666 C 221.166 95.813,224.501 90.897,224.501 90.558 C 224.501 90.239,224.139 90.218,218.542 90.218 L 212.582 90.218 212.377 91.690 M183.025 91.471 C 187.194 93.189,187.467 102.534,183.407 104.557 C 180.397 106.057,177.583 103.956,177.001 99.774 C 176.233 94.255,179.351 89.957,183.025 91.471 M231.522 102.422 C 229.431 103.476,230.272 106.554,232.649 106.552 C 235.076 106.549,235.902 103.331,233.740 102.305 C 232.875 101.894,232.532 101.912,231.522 102.422 " stroke="none" fill="#101010" fill-rule="evenodd"></path><path id="path2" d="M185.338 80.536 C 185.684 80.747,186.086 81.195,186.233 81.533 C 186.404 81.927,186.503 82.021,186.507 81.795 C 186.516 81.392,185.352 80.152,184.967 80.153 C 184.826 80.153,184.993 80.326,185.338 80.536 M182.258 80.926 C 181.528 81.794,181.569 82.978,182.358 83.805 L 182.949 84.425 182.453 83.794 C 181.769 82.923,181.767 81.735,182.448 80.926 C 182.718 80.605,182.897 80.342,182.845 80.342 C 182.793 80.342,182.529 80.605,182.258 80.926 M155.302 81.810 C 155.252 81.890,156.849 81.956,158.850 81.956 L 162.488 81.956 162.608 82.811 L 162.728 83.666 162.703 82.716 L 162.678 81.766 159.036 81.715 C 157.032 81.687,155.352 81.729,155.302 81.810 M180.247 82.880 C 180.247 83.023,180.068 83.386,179.848 83.688 L 179.450 84.236 179.943 83.703 C 180.380 83.231,180.605 82.621,180.342 82.621 C 180.290 82.621,180.247 82.738,180.247 82.880 M176.067 83.688 C 176.306 84.071,177.006 84.610,177.102 84.486 C 177.128 84.453,176.850 84.170,176.484 83.859 C 176.000 83.446,175.887 83.400,176.067 83.688 M185.610 83.956 C 185.268 84.267,185.060 84.520,185.147 84.520 C 185.233 84.520,185.550 84.264,185.850 83.951 C 186.548 83.222,186.413 83.225,185.610 83.956 M160.532 83.799 C 160.074 84.257,160.219 103.999,160.684 104.463 C 161.081 104.860,164.294 104.992,165.717 104.669 C 166.030 104.598,165.128 104.576,163.712 104.620 C 161.476 104.690,161.095 104.658,160.816 104.378 C 160.403 103.965,160.312 84.208,160.722 83.799 C 160.847 83.673,160.907 83.571,160.855 83.571 C 160.802 83.571,160.657 83.673,160.532 83.799 M198.174 84.984 C 198.116 85.135,198.102 85.413,198.143 85.601 C 198.189 85.816,198.254 85.713,198.316 85.328 C 198.419 84.681,198.352 84.519,198.174 84.984 M200.032 87.216 C 200.014 88.646,200.064 89.856,200.142 89.904 C 200.221 89.953,200.261 89.082,200.232 87.969 C 200.148 84.722,200.066 84.414,200.032 87.216 M157.121 94.706 C 157.070 105.249,157.163 104.577,155.742 104.702 L 154.891 104.777 155.757 104.810 C 157.384 104.872,157.276 105.610,157.218 94.777 L 157.166 85.185 157.121 94.706 M196.960 88.936 C 196.681 89.318,196.635 89.451,196.840 89.284 C 197.152 89.031,197.623 88.319,197.478 88.319 C 197.442 88.319,197.209 88.597,196.960 88.936 M195.726 89.737 C 195.413 89.880,195.290 90.005,195.453 90.013 C 195.616 90.022,195.915 89.903,196.118 89.750 C 196.575 89.403,196.463 89.400,195.726 89.737 M179.487 89.836 C 179.293 89.960,179.445 89.981,179.962 89.901 C 180.901 89.757,181.061 89.648,180.326 89.652 C 180.021 89.653,179.644 89.736,179.487 89.836 M183.302 89.717 C 183.345 89.754,183.637 89.842,183.951 89.913 C 184.367 90.006,184.444 89.988,184.236 89.847 C 183.979 89.674,183.111 89.553,183.302 89.717 M178.241 90.324 C 177.879 90.615,177.879 90.616,178.253 90.445 C 178.462 90.348,178.761 90.222,178.917 90.164 C 179.163 90.073,179.162 90.056,178.906 90.043 C 178.743 90.035,178.444 90.161,178.241 90.324 M193.001 90.630 C 192.949 91.905,192.986 91.928,195.177 91.928 L 197.151 91.928 197.164 97.388 C 197.172 100.392,197.236 102.996,197.307 103.176 C 197.444 103.524,197.388 92.372,197.250 91.982 C 197.195 91.826,196.533 91.734,195.213 91.697 L 193.257 91.643 193.143 90.788 C 193.033 89.962,193.029 89.957,193.001 90.630 M212.229 90.302 C 212.171 90.453,212.157 90.731,212.198 90.920 C 212.244 91.134,212.309 91.031,212.371 90.646 C 212.475 89.999,212.407 89.837,212.229 90.302 M176.458 91.690 C 175.438 92.746,174.538 94.175,174.274 95.157 C 174.204 95.418,174.464 94.991,174.853 94.209 C 175.302 93.305,175.958 92.387,176.653 91.692 C 177.255 91.091,177.694 90.598,177.629 90.598 C 177.565 90.598,177.037 91.090,176.458 91.690 M186.082 90.992 C 186.314 91.234,186.552 91.384,186.610 91.326 C 186.669 91.267,186.479 91.069,186.188 90.886 L 185.660 90.552 186.082 90.992 M224.310 91.404 C 223.754 92.239,223.711 92.394,224.191 91.833 C 224.614 91.338,224.804 90.978,224.642 90.978 C 224.615 90.978,224.465 91.170,224.310 91.404 M212.023 92.308 C 212.023 92.882,212.058 93.117,212.102 92.830 C 212.145 92.543,212.145 92.073,212.102 91.785 C 212.058 91.498,212.023 91.733,212.023 92.308 M187.392 92.450 C 188.228 93.552,188.415 93.728,187.945 92.972 C 187.358 92.027,186.997 91.560,186.848 91.554 C 186.771 91.551,187.015 91.954,187.392 92.450 M202.754 91.730 L 200.095 91.833 200.044 96.635 C 200.016 99.277,200.059 101.831,200.139 102.310 C 200.219 102.790,200.256 100.651,200.220 97.555 L 200.156 91.928 202.689 91.925 C 204.083 91.923,205.351 91.839,205.508 91.738 C 205.665 91.637,205.708 91.570,205.603 91.590 C 205.499 91.610,204.217 91.673,202.754 91.730 M216.524 91.864 C 218.581 92.003,220.894 92.011,220.893 91.880 C 220.893 91.802,219.717 91.753,218.281 91.772 C 216.845 91.791,216.054 91.832,216.524 91.864 M183.666 91.987 C 183.666 92.020,183.943 92.298,184.283 92.605 L 184.900 93.162 184.342 92.545 C 183.822 91.970,183.666 91.841,183.666 91.987 M214.617 92.698 C 214.390 93.018,214.235 93.311,214.274 93.350 C 214.313 93.388,214.537 93.127,214.771 92.769 C 215.301 91.961,215.181 91.907,214.617 92.698 M220.133 92.877 C 219.910 93.191,219.770 93.447,219.822 93.447 C 219.874 93.447,220.100 93.191,220.323 92.877 C 220.546 92.564,220.686 92.308,220.634 92.308 C 220.581 92.308,220.356 92.564,220.133 92.877 M211.820 94.017 C 211.820 94.383,211.859 94.532,211.907 94.349 C 211.955 94.167,211.955 93.868,211.907 93.685 C 211.859 93.502,211.820 93.651,211.820 94.017 M219.427 93.875 C 218.829 94.653,217.459 96.724,217.699 96.486 C 218.074 96.117,219.814 93.637,219.698 93.637 C 219.649 93.637,219.527 93.744,219.427 93.875 M221.858 94.967 C 221.418 95.594,221.099 96.106,221.148 96.106 C 221.229 96.106,222.321 94.642,222.671 94.065 C 223.078 93.392,222.556 93.971,221.858 94.967 M185.402 94.397 C 185.402 94.554,185.475 94.853,185.565 95.062 C 185.668 95.301,185.728 95.336,185.728 95.157 C 185.728 95.000,185.655 94.701,185.565 94.492 C 185.462 94.252,185.402 94.217,185.402 94.397 M177.327 95.370 C 177.168 96.162,177.322 96.316,177.493 95.537 C 177.565 95.208,177.584 94.900,177.536 94.852 C 177.488 94.803,177.393 95.037,177.327 95.370 M173.909 96.344 C 173.756 96.914,173.782 99.535,173.945 99.945 C 174.016 100.124,174.074 99.291,174.074 98.094 C 174.074 95.716,174.075 95.725,173.909 96.344 M186.012 98.101 C 186.012 99.041,186.044 99.449,186.084 99.009 C 186.124 98.568,186.124 97.799,186.085 97.299 C 186.046 96.800,186.013 97.160,186.012 98.101 M189.222 97.151 C 189.224 97.569,189.263 97.717,189.308 97.481 C 189.354 97.245,189.352 96.903,189.304 96.721 C 189.257 96.540,189.220 96.733,189.222 97.151 M177.077 98.101 C 177.078 98.727,177.113 98.961,177.156 98.620 C 177.198 98.278,177.197 97.765,177.154 97.480 C 177.110 97.195,177.076 97.474,177.077 98.101 M219.826 97.860 C 219.030 99.028,218.889 99.320,219.434 98.670 C 219.955 98.050,220.583 97.056,220.454 97.056 C 220.410 97.056,220.127 97.418,219.826 97.860 M215.575 99.335 C 215.149 99.962,214.843 100.475,214.896 100.475 C 214.948 100.475,215.339 99.962,215.764 99.335 C 216.190 98.708,216.496 98.196,216.443 98.196 C 216.391 98.196,216.000 98.708,215.575 99.335 M189.202 98.789 C 189.187 99.063,189.131 99.576,189.079 99.929 L 188.985 100.570 189.185 99.932 C 189.295 99.582,189.350 99.069,189.308 98.793 L 189.231 98.291 189.202 98.789 M169.847 99.953 C 169.743 100.083,169.605 100.404,169.541 100.665 C 169.463 100.984,169.520 100.931,169.716 100.504 C 169.969 99.950,170.073 99.883,170.521 99.987 C 170.904 100.076,170.962 100.057,170.750 99.914 C 170.367 99.654,170.076 99.667,169.847 99.953 M223.678 100.032 C 223.609 100.101,223.553 100.251,223.555 100.364 C 223.557 100.499,223.606 100.494,223.698 100.350 C 223.775 100.228,224.094 100.092,224.407 100.046 L 224.976 99.962 224.391 99.933 C 224.069 99.918,223.748 99.962,223.678 100.032 M177.324 100.855 C 177.389 101.220,177.518 101.648,177.612 101.804 C 177.814 102.142,177.620 101.157,177.369 100.570 C 177.259 100.314,177.244 100.406,177.324 100.855 M174.183 100.855 C 174.183 101.128,174.718 102.216,174.732 101.969 C 174.736 101.902,174.614 101.560,174.461 101.209 C 174.309 100.857,174.184 100.698,174.183 100.855 M217.094 101.804 C 216.668 102.431,216.363 102.944,216.415 102.944 C 216.467 102.944,216.858 102.431,217.284 101.804 C 217.710 101.178,218.015 100.665,217.963 100.665 C 217.911 100.665,217.520 101.178,217.094 101.804 M205.117 101.358 C 205.012 101.635,204.959 101.956,204.999 102.071 C 205.038 102.185,205.136 101.992,205.214 101.642 C 205.347 101.049,205.398 101.013,205.955 101.119 C 206.383 101.202,206.472 101.181,206.268 101.047 C 205.763 100.716,205.315 100.837,205.117 101.358 M171.059 102.208 C 170.992 102.542,170.973 102.850,171.016 102.893 C 171.059 102.936,171.153 102.702,171.225 102.374 C 171.297 102.046,171.317 101.738,171.268 101.689 C 171.220 101.641,171.126 101.874,171.059 102.208 M223.013 102.097 C 222.695 102.796,222.755 102.945,223.099 102.310 C 223.260 102.013,223.356 101.735,223.313 101.692 C 223.269 101.648,223.134 101.831,223.013 102.097 M231.434 102.026 C 230.872 102.337,230.199 102.982,230.199 103.209 C 230.199 103.319,230.339 103.209,230.509 102.966 C 230.680 102.722,231.171 102.363,231.602 102.168 C 232.032 101.973,232.255 101.813,232.099 101.814 C 231.942 101.815,231.643 101.910,231.434 102.026 M233.745 102.172 C 234.652 102.584,234.973 103.064,235.151 104.274 L 235.277 105.128 235.302 104.407 C 235.345 103.182,234.245 101.797,233.238 101.809 C 233.082 101.811,233.310 101.975,233.745 102.172 M212.652 103.465 C 212.066 104.274,211.593 105.064,211.601 105.222 C 211.614 105.475,211.628 105.475,211.723 105.223 C 211.782 105.066,212.293 104.276,212.860 103.466 C 213.427 102.657,213.852 101.994,213.804 101.994 C 213.757 101.994,213.238 102.656,212.652 103.465 M167.985 103.246 C 167.457 103.811,167.082 104.274,167.152 104.274 C 167.299 104.274,169.041 102.442,169.041 102.287 C 169.041 102.124,169.000 102.162,167.985 103.246 M177.778 102.325 C 177.778 103.683,181.618 105.475,182.850 104.692 C 182.975 104.612,182.505 104.574,181.805 104.608 C 180.270 104.681,179.378 104.253,178.404 102.976 C 178.060 102.524,177.778 102.231,177.778 102.325 M204.555 102.953 C 204.244 103.704,203.589 104.132,202.486 104.305 L 201.614 104.441 202.614 104.385 C 203.265 104.348,203.751 104.204,204.010 103.969 C 204.445 103.576,205.016 102.578,204.883 102.445 C 204.837 102.400,204.689 102.628,204.555 102.953 M224.995 103.153 C 224.926 103.588,224.906 103.981,224.951 104.027 C 224.996 104.072,225.093 103.756,225.166 103.324 C 225.239 102.892,225.259 102.499,225.210 102.450 C 225.162 102.401,225.065 102.718,224.995 103.153 M184.343 103.473 C 183.673 104.275,183.660 104.309,184.217 103.799 C 184.744 103.315,185.322 102.550,185.144 102.570 C 185.115 102.574,184.754 102.980,184.343 103.473 M187.673 103.240 C 187.229 103.889,186.282 104.809,185.373 105.475 C 184.904 105.819,184.905 105.819,185.470 105.498 C 186.414 104.961,188.414 102.880,188.195 102.662 C 188.154 102.621,187.919 102.881,187.673 103.240 M222.407 103.334 C 222.292 103.549,221.926 103.890,221.593 104.093 C 221.260 104.296,221.083 104.462,221.199 104.463 C 221.498 104.464,222.377 103.745,222.610 103.309 C 222.717 103.108,222.763 102.944,222.710 102.944 C 222.658 102.944,222.522 103.119,222.407 103.334 M230.061 104.274 C 230.061 104.744,230.098 104.936,230.144 104.701 C 230.189 104.466,230.189 104.081,230.144 103.846 C 230.098 103.611,230.061 103.803,230.061 104.274 M176.353 104.463 C 176.761 104.881,177.138 105.223,177.190 105.223 C 177.242 105.223,176.951 104.881,176.543 104.463 C 176.135 104.046,175.759 103.704,175.706 103.704 C 175.654 103.704,175.945 104.046,176.353 104.463 M197.539 103.764 C 197.513 104.249,198.641 105.666,199.335 106.019 C 199.544 106.125,199.393 105.939,198.998 105.605 C 198.604 105.271,198.117 104.686,197.915 104.304 C 197.713 103.921,197.544 103.678,197.539 103.764 M205.703 104.550 C 205.480 104.911,205.067 105.386,204.785 105.605 C 204.397 105.907,204.375 105.955,204.693 105.801 C 205.174 105.568,206.497 103.894,206.200 103.894 C 206.150 103.894,205.926 104.189,205.703 104.550 M170.489 104.677 C 170.422 105.011,170.403 105.319,170.446 105.362 C 170.489 105.405,170.583 105.172,170.655 104.843 C 170.727 104.515,170.747 104.207,170.698 104.158 C 170.650 104.110,170.556 104.343,170.489 104.677 M215.195 104.701 C 215.195 104.877,220.105 104.865,220.554 104.688 C 220.733 104.616,219.601 104.558,218.038 104.558 C 216.474 104.558,215.195 104.623,215.195 104.701 M230.209 105.318 C 230.207 105.781,231.584 106.941,231.836 106.689 C 231.883 106.642,231.680 106.504,231.385 106.382 C 231.091 106.260,230.705 105.928,230.529 105.644 C 230.354 105.360,230.209 105.214,230.209 105.318 M234.793 105.618 C 234.663 105.825,234.282 106.163,233.945 106.368 C 233.609 106.573,233.441 106.742,233.574 106.742 C 233.869 106.743,235.270 105.483,235.130 105.342 C 235.074 105.286,234.922 105.410,234.793 105.618 M178.241 105.877 C 178.444 106.040,178.743 106.166,178.906 106.158 C 179.162 106.145,179.163 106.128,178.917 106.037 C 178.761 105.979,178.462 105.853,178.253 105.757 C 177.879 105.585,177.879 105.587,178.241 105.877 M224.465 105.933 L 224.348 106.358 218.110 106.410 L 211.871 106.463 218.044 106.505 C 224.306 106.548,224.786 106.501,224.655 105.865 C 224.589 105.549,224.568 105.557,224.465 105.933 M170.059 106.180 C 169.935 106.304,167.242 106.353,162.445 106.320 C 158.362 106.291,155.061 106.332,155.110 106.410 C 155.158 106.489,158.505 106.551,162.547 106.550 C 169.142 106.547,170.716 106.455,170.352 106.091 C 170.296 106.035,170.164 106.075,170.059 106.180 M181.576 106.562 C 181.256 106.671,181.411 106.688,182.051 106.614 C 182.574 106.553,183.037 106.472,183.080 106.433 C 183.230 106.300,182.051 106.401,181.576 106.562 M201.032 106.592 C 201.443 106.680,202.127 106.680,202.552 106.593 C 203.213 106.458,203.106 106.436,201.804 106.434 C 200.522 106.433,200.402 106.458,201.032 106.592 " stroke="none" fill="#9e9e9e" fill-rule="evenodd"></path><path id="path3" d="" stroke="none" fill="#848484" fill-rule="evenodd"></path><path id="path4" d="M182.350 81.032 C 182.133 81.308,181.959 81.628,181.962 81.745 C 181.965 81.861,182.063 81.785,182.179 81.576 C 182.295 81.368,182.519 81.047,182.677 80.864 C 182.835 80.681,182.915 80.532,182.854 80.532 C 182.793 80.532,182.566 80.757,182.350 81.032 M185.754 81.054 C 186.003 81.394,186.236 81.671,186.272 81.671 C 186.416 81.671,185.946 80.959,185.634 80.706 C 185.429 80.539,185.475 80.672,185.754 81.054 M155.251 82.130 C 154.941 82.937,155.249 83.475,156.030 83.492 L 156.790 83.508 156.078 83.434 C 155.408 83.363,155.366 83.320,155.366 82.709 L 155.366 82.060 158.832 82.004 L 162.298 81.947 158.826 81.904 C 155.978 81.869,155.335 81.910,155.251 82.130 M175.715 82.241 C 175.715 82.398,175.789 82.697,175.878 82.906 C 175.981 83.145,176.042 83.181,176.042 83.001 C 176.042 82.844,175.968 82.545,175.878 82.336 C 175.776 82.097,175.715 82.062,175.715 82.241 M181.962 82.943 C 181.959 83.068,182.149 83.371,182.384 83.617 C 182.619 83.863,182.716 83.932,182.600 83.770 C 182.484 83.608,182.295 83.305,182.179 83.096 C 182.063 82.887,181.965 82.818,181.962 82.943 M185.754 83.618 C 185.475 84.000,185.429 84.133,185.634 83.966 C 185.946 83.713,186.416 83.001,186.272 83.001 C 186.236 83.001,186.003 83.279,185.754 83.618 M161.538 83.381 L 160.589 83.511 161.586 83.541 C 162.144 83.558,162.583 83.487,162.583 83.381 C 162.583 83.276,162.562 83.204,162.536 83.221 C 162.509 83.237,162.061 83.309,161.538 83.381 M157.354 94.112 C 157.354 99.753,157.378 102.033,157.407 99.179 C 157.437 96.325,157.437 91.710,157.407 88.923 C 157.378 86.136,157.353 88.471,157.354 94.112 M177.142 84.378 C 177.191 84.456,177.605 84.520,178.063 84.520 C 178.520 84.520,178.935 84.456,178.983 84.378 C 179.031 84.300,178.617 84.236,178.063 84.236 C 177.508 84.236,177.094 84.300,177.142 84.378 M198.362 84.989 C 198.303 85.142,198.299 85.377,198.353 85.511 C 198.406 85.645,198.457 85.570,198.466 85.343 C 198.474 85.117,198.587 84.889,198.718 84.836 C 198.904 84.761,198.903 84.737,198.712 84.725 C 198.578 84.717,198.420 84.836,198.362 84.989 M196.816 89.274 C 196.474 89.585,196.266 89.839,196.353 89.839 C 196.439 89.839,196.756 89.582,197.056 89.269 C 197.754 88.540,197.619 88.543,196.816 89.274 M181.719 89.783 C 181.954 89.828,182.339 89.828,182.574 89.783 C 182.809 89.737,182.616 89.700,182.146 89.700 C 181.676 89.700,181.484 89.737,181.719 89.783 M193.878 90.166 C 194.219 90.208,194.732 90.208,195.018 90.164 C 195.303 90.121,195.024 90.086,194.397 90.087 C 193.770 90.088,193.537 90.124,193.878 90.166 M201.472 90.170 C 202.229 90.206,203.469 90.206,204.226 90.170 C 204.983 90.133,204.364 90.104,202.849 90.104 C 201.334 90.104,200.715 90.133,201.472 90.170 M212.420 90.300 C 212.361 90.452,212.354 90.731,212.403 90.920 C 212.461 91.144,212.499 91.082,212.514 90.741 L 212.536 90.218 218.505 90.218 C 223.679 90.218,224.485 90.257,224.563 90.507 C 224.626 90.709,224.643 90.695,224.622 90.460 C 224.579 89.991,212.598 89.834,212.420 90.300 M176.819 91.484 C 176.395 91.867,175.961 92.358,175.853 92.576 C 175.746 92.794,175.882 92.698,176.156 92.363 C 176.430 92.028,176.928 91.537,177.263 91.273 C 177.598 91.009,177.809 90.791,177.731 90.790 C 177.653 90.789,177.242 91.101,176.819 91.484 M186.420 91.548 C 186.828 91.966,187.204 92.308,187.257 92.308 C 187.309 92.308,187.018 91.966,186.610 91.548 C 186.202 91.130,185.825 90.788,185.773 90.788 C 185.721 90.788,186.012 91.130,186.420 91.548 M193.335 91.607 C 193.420 91.692,193.907 91.733,194.418 91.699 L 195.347 91.637 194.263 91.545 C 193.668 91.494,193.250 91.522,193.335 91.607 M183.381 91.668 C 183.485 91.759,183.912 92.133,184.330 92.498 L 185.089 93.162 184.520 92.529 C 184.207 92.180,183.780 91.807,183.571 91.698 C 183.362 91.590,183.276 91.576,183.381 91.668 M195.726 91.644 C 196.170 91.799,197.341 91.839,197.341 91.700 C 197.341 91.616,196.935 91.555,196.439 91.563 C 195.943 91.571,195.622 91.608,195.726 91.644 M200.000 91.690 C 199.999 91.769,200.790 91.810,201.756 91.782 C 204.946 91.690,205.261 91.617,202.612 91.582 C 201.175 91.563,200.000 91.612,200.000 91.690 M218.226 91.690 C 219.973 91.731,220.829 91.823,220.930 91.981 C 221.032 92.142,221.078 92.111,221.080 91.880 C 221.082 91.577,220.844 91.552,218.376 91.589 L 215.670 91.631 218.226 91.690 M220.323 92.877 C 220.100 93.191,219.960 93.447,220.012 93.447 C 220.064 93.447,220.290 93.191,220.513 92.877 C 220.736 92.564,220.876 92.308,220.824 92.308 C 220.771 92.308,220.546 92.564,220.323 92.877 M221.652 94.967 C 221.429 95.280,221.289 95.537,221.342 95.537 C 221.394 95.537,221.619 95.280,221.842 94.967 C 222.066 94.653,222.205 94.397,222.153 94.397 C 222.101 94.397,221.876 94.653,221.652 94.967 M218.044 96.106 C 217.821 96.420,217.681 96.676,217.733 96.676 C 217.785 96.676,218.010 96.420,218.234 96.106 C 218.457 95.793,218.597 95.537,218.544 95.537 C 218.492 95.537,218.267 95.793,218.044 96.106 M189.032 97.151 C 189.034 97.569,189.073 97.717,189.118 97.481 C 189.164 97.245,189.162 96.903,189.114 96.721 C 189.067 96.540,189.030 96.733,189.032 97.151 M176.887 98.101 C 176.888 98.727,176.923 98.961,176.966 98.620 C 177.008 98.278,177.007 97.765,176.964 97.480 C 176.920 97.195,176.886 97.474,176.887 98.101 M186.189 98.101 C 186.191 98.623,186.227 98.814,186.271 98.525 C 186.315 98.237,186.314 97.809,186.269 97.576 C 186.223 97.342,186.188 97.578,186.189 98.101 M189.032 98.860 C 189.034 99.278,189.073 99.427,189.118 99.191 C 189.164 98.954,189.162 98.612,189.114 98.431 C 189.067 98.249,189.030 98.443,189.032 98.860 M185.968 100.190 C 185.953 100.399,185.896 100.783,185.842 101.045 L 185.744 101.519 185.948 101.054 C 186.060 100.797,186.116 100.413,186.074 100.199 C 185.999 99.820,185.996 99.820,185.968 100.190 M214.625 100.950 C 214.301 101.420,214.080 101.804,214.132 101.804 C 214.184 101.804,214.491 101.420,214.815 100.950 C 215.138 100.480,215.360 100.095,215.308 100.095 C 215.256 100.095,214.948 100.480,214.625 100.950 M224.850 100.297 C 225.245 100.455,225.283 100.565,225.190 101.282 L 225.086 102.089 225.288 101.373 C 225.511 100.584,225.285 100.085,224.716 100.107 C 224.514 100.115,224.561 100.181,224.850 100.297 M231.197 102.372 C 230.857 102.579,230.579 102.803,230.579 102.869 C 230.579 102.936,230.692 102.897,230.830 102.783 C 230.968 102.668,231.374 102.447,231.732 102.292 C 232.090 102.136,232.255 102.006,232.099 102.002 C 231.942 101.999,231.536 102.165,231.197 102.372 M168.660 102.802 C 168.381 103.183,168.335 103.316,168.540 103.150 C 168.852 102.897,169.322 102.184,169.178 102.184 C 169.142 102.184,168.909 102.462,168.660 102.802 M204.848 102.741 C 204.779 102.958,204.496 103.413,204.220 103.752 C 203.786 104.284,203.777 104.316,204.157 103.989 C 204.633 103.579,205.213 102.586,205.065 102.437 C 205.014 102.387,204.917 102.523,204.848 102.741 M177.928 102.849 C 178.036 103.058,178.410 103.485,178.759 103.798 L 179.392 104.368 178.728 103.608 C 178.363 103.191,177.989 102.764,177.898 102.659 C 177.806 102.555,177.820 102.640,177.928 102.849 M215.954 103.134 C 215.731 103.447,215.591 103.704,215.644 103.704 C 215.696 103.704,215.921 103.447,216.144 103.134 C 216.368 102.821,216.507 102.564,216.455 102.564 C 216.403 102.564,216.178 102.821,215.954 103.134 M170.669 103.242 C 170.599 103.521,170.578 103.785,170.623 103.830 C 170.668 103.875,170.762 103.684,170.832 103.405 C 170.901 103.127,170.922 102.863,170.877 102.818 C 170.832 102.773,170.739 102.964,170.669 103.242 M234.669 103.101 C 234.740 103.240,234.868 103.582,234.952 103.861 C 235.075 104.268,235.108 104.291,235.121 103.977 C 235.130 103.762,235.003 103.420,234.839 103.218 C 234.674 103.015,234.598 102.963,234.669 103.101 M222.388 103.640 C 222.245 103.813,221.871 104.112,221.557 104.304 C 221.244 104.495,221.096 104.652,221.228 104.653 C 221.466 104.653,222.996 103.339,222.768 103.329 C 222.702 103.326,222.531 103.466,222.388 103.640 M176.448 104.368 C 176.803 104.734,177.135 105.033,177.188 105.033 C 177.240 105.033,176.993 104.734,176.638 104.368 C 176.284 104.003,175.951 103.704,175.899 103.704 C 175.847 103.704,176.094 104.003,176.448 104.368 M186.598 104.321 L 186.040 104.938 186.657 104.380 C 186.997 104.074,187.274 103.796,187.274 103.763 C 187.274 103.616,187.118 103.746,186.598 104.321 M198.060 104.558 C 198.168 104.767,198.499 105.152,198.795 105.412 L 199.335 105.887 198.767 105.222 C 197.866 104.170,197.854 104.159,198.060 104.558 M202.469 104.463 L 201.614 104.596 202.374 104.622 C 202.792 104.636,203.262 104.565,203.419 104.463 C 203.575 104.362,203.618 104.291,203.514 104.305 C 203.409 104.319,202.939 104.390,202.469 104.463 M155.060 105.114 C 155.003 105.263,154.984 105.584,155.018 105.827 L 155.081 106.268 162.476 106.318 C 166.544 106.345,169.937 106.302,170.017 106.223 C 170.097 106.143,166.780 106.101,162.647 106.130 L 155.133 106.181 155.211 105.512 C 155.293 104.810,155.235 104.658,155.060 105.114 M181.054 104.979 C 181.341 105.023,181.811 105.023,182.099 104.979 C 182.386 104.936,182.151 104.900,181.576 104.900 C 181.002 104.900,180.767 104.936,181.054 104.979 M185.326 105.207 C 184.546 105.707,184.437 105.883,185.126 105.534 C 185.459 105.364,185.784 105.140,185.849 105.035 C 186.001 104.788,185.956 104.803,185.326 105.207 M231.103 106.125 C 231.349 106.360,231.652 106.550,231.777 106.547 C 231.902 106.544,231.833 106.446,231.624 106.330 C 231.415 106.214,231.112 106.025,230.950 105.909 C 230.788 105.793,230.857 105.890,231.103 106.125 M179.487 106.175 C 179.644 106.275,180.021 106.358,180.326 106.360 C 181.061 106.364,180.901 106.254,179.962 106.110 C 179.445 106.031,179.293 106.052,179.487 106.175 M211.900 106.220 C 211.949 106.299,214.756 106.363,218.139 106.363 C 221.521 106.363,224.329 106.299,224.377 106.220 C 224.426 106.142,221.618 106.078,218.139 106.078 C 214.659 106.078,211.852 106.142,211.900 106.220 " stroke="none" fill="#7c7c7c" fill-rule="evenodd"></path></g></svg>